<mxfile host="Electron" modified="2024-02-16T06:20:21.535Z" agent="Mozilla/5.0 (Windows NT 10.0; Win64; x64) AppleWebKit/537.36 (KHTML, like Gecko) draw.io/21.2.8 Chrome/112.0.5615.165 Electron/24.2.0 Safari/537.36" etag="_fEche0Q28NmjhypAQKa" version="21.2.8" type="device">
  <diagram name="Page-1" id="2XWkQP5S-hDbL94sL5Vg">
    <mxGraphModel dx="2058" dy="1180" grid="1" gridSize="10" guides="1" tooltips="1" connect="1" arrows="1" fold="1" page="1" pageScale="1" pageWidth="3300" pageHeight="4681" background="#999999" math="0" shadow="0">
      <root>
        <mxCell id="0" />
        <mxCell id="1" parent="0" />
        <mxCell id="APLwThIm-aDqV8bCMrbt-1" value="GridView" style="rounded=0;whiteSpace=wrap;html=1;fontSize=25;fillColor=#dae8fc;strokeColor=#6c8ebf;" parent="1" vertex="1">
          <mxGeometry x="1298" y="140" width="650" height="60" as="geometry" />
        </mxCell>
        <mxCell id="qaD7BotZgqp1Yg0x2el8-1" value="" style="shape=image;verticalLabelPosition=bottom;labelBackgroundColor=default;verticalAlign=top;aspect=fixed;imageAspect=0;image=data:image/png,iVBORw0KGgoAAAANSUhEUgAAAa4AAAHWCAYAAAAvhG02AAAAAXNSR0IArs4c6QAAAARnQU1BAACxjwv8YQUAAAAJcEhZcwAADsMAAA7DAcdvqGQAACsxSURBVHhe7d0JYJTlncfx3+QmJIFAuEESEQiXKAqCdxWtVrxtq9bt0mu1dm2r3WqrbdV2be2utt2trVqPHrQF3daz9cQDbwUUPBFQEuUKAULuhByzz/POO8kkTGCAyWSe8fsJ/7zPe2RmcvD+5nnfd54JTDt4elC7FVRwT1vsaQMAACIEAgG/FV1odfRtdhNc0QMrriEVp9siNgFg7+w+NvbCHgJob0QLs2gBFiW4YgwsM+9eYBBxySaez4OQ2uK4f0xxbv2gQrnULZj2EGDdgmvX0OoSWFHDKnrQAQDQk6g9qT0EWPhrIoJrN6HVLbBiOlwYwzYx3AoAwHFd48cXEUrdQywysKKFlx9cPYdWZEj11I5uT+vjKI53lcBHDQBx13U3v5/idmO7v6GegqrHtg2uPYdTKNgyMjLUv39/ZWVmKis7S+lp6eG13jQlpNC3AiDF7H7/75SA/820trVp585mUy1qaGhQa2ur16sKf7PRwiswddrBHbvqaKEVnubn5WnAgAGqqtqupqYmNTc3q6WlxVsHAMC+yDQdoezsbOXk5GjQoMHaUV2t2tpab11HUHULr6jB1X06ePAgr72looKwAgD0ChtiQ4cNU0Z6hrZUVnrLooVXmj/tMbTyTE8r2B7UhvXrCS0AQK+xGWOzxh4uzM/P85Z1zyTLC66eQisjI10DBwzQli0V3jwAAL3NZo49NWUzyOqeTWnhRqfODfrn9tf2qu30tAAACWMzZ/v27co1GdSZUZ1ZFeVQYfiTlJmV6V2IAQBAItnssVewe0wmhfPLZlVHcFkd4eV/zs7K1s7mZm8OAIBEsdmTlZVlWp0vuApnVGDK1Gmm7UeVnZqyc7Y9duwBWv3++966nuTlF3iv79pb9uRbXW2NPwcAQFcTJk5UeflHoUvg7QI7tdUZXKGuWGd4meA6YKxWr959cP38pl9p3EEH+XPRhS9j3LB5q3cfVn3NNn3vP76ttLQunT4AADwTJpjg+qg89GLlcGjZ5pQpU0Ox5SeKnYareOyeg+v2O+7Wsccc5c/F7oWXXtGX//UipaeHrhoBgE+Kww47TOPHj+94Ut+d3f+uWbNGy5cv95ckh9NPn6fXXluqioroV5oPGzZMs2bO1MP/+Ie/ZP/Y4CorN8HVEVqhn9d+B9edd/9Bo0eP0wPPr1EgLRiqdFvt+sz0gzR82ADV1dV729rhov7+4jqvXZLfEFNw2R/ECSec4M+FPP3001F/cKeeeqoaGxv17LPP+ks6HX/88aqqqvLaI0eO1KOPPuq1w2bPnu29cnv9+vWaaX7wPd0HAOyv888/39sH2SGOorEjScybN0+LFi3ylyQHuz+eM2eOXn755V32j7tbt696Cq79Pk5nbyYQSNe66jqV1daqvKFGHzdXa33LDrW0tJsANOV/hKVntfmt3Zs+fboXWgsXLuyod999V/n5+f4WXdk/hGihFWnlypUaOHCg90OONGLECL333ntau3atdz+EFoDeYnfANrTsZd/Rqq6urmMnnUzsftEGkw2oyH1ob4TW7ux3cLW1hwJpyOBsBbJaVd1ao8qmbapo9Ifr6MwrT05hk3KLoj/L6G7y5MleiESywWPDZX9s2rRJw4cP9+ekg/xzdIQVAOxe9/BKdGhZ+x1c4Vx6r2K91u3YpB2tVWpUrXYG6rzlQf9Jg+nkedP+A+uUmxdatzu2t2UDZnfsoUF7iO+CCy7wtreHA+00zC63dfbZZ/tLQuwhQ3u4MKyoqKjjvuwvIXL78O3bsvdn2Wk47Oz2dl2Y3d4WAKSqyPBKdGhZaf6ZrdDn0NmuzvmOWOpZuDPbaIIqs1+LMnNalJG9U5mmPOYmwqFllQ4Zo4MGHujP7V7ki58jAyQynAoLC71eme2JRbLhYw8r2nUvvfSSdygwLHy4MMyuW7cudO4tkr0fe97L3oYtG3h22caNG72ws0pKSrzHGQ4y+3ii3RaA3hHeL+yp4J7ODPJzyb8WI27XonuBZSoz21ZEcJnMCt+1dVDhOK9iYUMj7JVXXvHCo3svzF55053tBVnhMLPPBLp/nZ23IWS3tcET7dmCDSEbauE/fBtSdtnmzZs7gtDOv/XWWxo9enTH/SbymQfwSRd+YrmnQvzYfV24pxV52DBR4hZcodAKBVaWnWaFgquzF2cFtbOlRY2Nex5GKjIc9sWehqqyVw/a0LFhFL7aMJpwry1c9uIPG0yRvSx7zs3elj1vtrvbAgDXRYaW3RfaSnR47X9wmR5Vc3Ojjigap8MLx2tGwQQd0n+SDu43xVse2iR0qNBmWHt7u9pM7Yn9YdheUffzU7GwX2sPBUaeh+oegjZs7DJbPR3asyF04IHRD2vadfZ1GPawYXjenjfbunWrNw8APbFP6O0l7z3Jzc31n/Qnl+6hFZbo8EofMnTodX57FwMHDtD2bdv8uehOO/0szTp8qqaPGq3Di8fpsLHjdVjxJM04YKKKBuebX04/7z29snNyFEgLeMFlL/PcuHmLHnzgvt2OnFFWVuYF0DHHHKNp06Z5Zd9oLHzJuw0OO4KwLau4uLjjsJ+d2tdj2a+x4VRZWbnLIUF7nso+lhUrVvhLQu8/NmbMGK1atcrb1vai7C8jfP/2Nuz92cOY48aN8w4T1tfXe0PwDxkyxDufBgC7Y0Mrcr/SvSZOnOidBul+iqOvnfCpT+nVV1/tsh8Ns/tB+wR+1qyZWr16tb90/wwePFjV1dVmP206QOaT1wmy08lTpppYD3q9ofBhPTu1TTtW4Zo9PIBvfPNyHXLIIf7crmww2Wpra+vyDOLNlW/qV7/4L0bOAABENX7CBH+swjgHl93W9qL2hQ20ZHyRHQCg7/UUXPt9jsvemO017UsRWgCAvRW3qwoBAEgEggsA4BQvuLxTW2Heua5ww1sCAEDi+VnkZVJEJNHjAgA4heACADiF4AIAOIXgAgA4heACADjFGzkjPBSTNzXV7l/CMfaAsXriice9dUgNS5Ys8VtIBl9ccZzfQjIo/zaDIiSTk086WeUflZtWQGmh4TO8gSvocQEAnEJwAQCcQnABAJyyS3CFX5nc2QAAoI/4WRQZSfS4AABOIbgAAE4huAAATiG4AABOIbgAAE4huAAATiG4AABOIbgAAE4huAAATiG4AABO6Qwu/61NwhjxCQDQ13bJIpNV9LgAAE4huAAATiG4AABOIbgAAE4huAAATiG4AABOIbgAAE4huAAATiG4AABO6RpcdvSMbiNoAADQ5/x8sglFjwsA4BSCCwDgFIILAOAUggsA4BSCCwDgFIILAOAUggsA4BSCCwDgFIILAOAUE1yhkTLC42V4U2/0DPsK5fBSAAASK5RBprqN6ESPCwDgFIILAOAUggsA4BSCCwDgFIILAOAUggvuaG9W7bYKbdxYoar6Fq55BXpQZ+o5U63eXOoJTJ4yJRh6f67QJYft/tR+jB07Vk8+8YS/KVLBkiVL/JY72uvL9OyC3+iuf6zQxjo/sNJyVDTxRM2/4lJ9Znx/Z5+BfXHFcX7LES1LVX3r2aqtaPIXdJemtGGXaPDFP1Z2tr/IIeXfDvgtdy03dZGpLFMvm8o15aqTTjpJ5eXlCtiPQKjMJ3pcSG5tm5/RzZdeoh8vWqpNrfkaM2Wm5syYoGH9WrXtvX/qpsu+pduWV9P7SpS2GrXXbDZPJrapvaEqeu3c6W+MRPrY1JdNzTa1ylSbqVRFcCF5tZTroZt+qUfKm1Uw9UL99I/36E+/+W/97Be/06K/3aH/mDtaWU1rdf8v79LSGv9r0LtaTXC1tEsF52rw1Ts05r/qulWNRn3rJ072tly12NSppsaZ+r2pYaZSXZo9MhjW5VkrT2HRx2re+D/93xsmkQoO15eu/JJmD8v010iBfiU67fLv6pxx2WpZ/5QWPbVeZneK3taywwSX2TlkFik9L1+BzH5RqvP3hN5nw+oxUxmmfmjqP02lVI/EzyI7CccSPS4kqXp98MpKVbQFVHjYPB1/QJSdYf9pOvuzM1Rgtl39wnJtIrl6387tam81TxyyBiqQ7i9Dnxpj6npTH5n6salPRI/LnwLJJdigyooatSlTRWNHKM9f3FWaCkaM0gCzA234+D19bC+lQq8KNlcpaE+eZA9SGsGVFG409SNTRd7cJwPBhSTVrtZWe2CgXc2NzT2eaM4aNFyDss1WNetVtj2VT0cnBxtc7aZnG8gZpAB7D/QR/vSQnAK5KirKNX+graresFm14YPb3dR/vEYbG02jrUkNzQRXr2s0PS47bXtfjS/+WrXP3aq65Q+ruaKi+wDeQK8huJCk8jX+iCkaFJB2vPoX3fNGrb88QtNaPXLPi6r0OmYtatpJcPWuoNobq72Aal9zk6r+9k1V3Xepti84QxU/G6n11x+vquXvdZxAB3oLwYWkVTjrszpzcq7UUqb7rvuufvXY+9pa36LWlkZVfbhEt199tRZUjtHEIvNnnJal3Gx7XRV6T1CBgZ9W/mk3qfC82zXo87/RwFOuUN4hxyoj26zdsUS1fz5aW558lSs80asILiSvnFJ9/vuX69NjstVes0oP3Hixzjv9FJ166mk658vXauFbmTpq3pEaZJ/jp2erX7b7ox4ktzSlT/ymBpz0HeUf/W/Km3OpCk65WYPmL9HIa5dq0KEHKhDcrubFV6huvT1+C/QOggtJLWv0Sfre7Xfox/NP1LQxg9Q/O0tZ/Ydo3Jzz9J1f/o++c3yh2pqDSssbrpED6HH1mdwZyvvs7cobbrpezcvVsPJNDhmi1xBcSHqB3AN07Pwf6tcL7tM/H3lE/3jwHt35s3/X6VOL1FrxoTY1mIAbNk6j+vtfgL6RO1P9xo0yjWa1bl6jdpILvSQUXN0uB7Jz/M0hKdmBNv2mtFMbVr6jLW2ZGj51ioYzYEMfy1X6oOGh38/OOvYhiItoeUSPC+6qX6VnXihXc+YoHXHUQU6Pgp0aqtW6qdzsZMyTi4JRSuOUI3oJwQVHNWr1g3fp4bXNGnDoOZpnrz5EnwpW3qe69zeZXvFQZZfOYOeCXsPfFpJXsF4bPtyo+u7XVrdV6e17/lM//P1K1fefonO/dJLGcF1G72tZrYbn7lLzju5XDAZNaP1NO/7yfTXWtisw+qvKn2rPdQG9IzBp8hTzV2ffNtL8+dlpRBUX80aSqcapN5IMVujRH1yqW94fqPETx6lkdKGCVeV69/U3tHZrs4I5xTr9mv/Wt44ZIleHzXPqjSTbVqjmf47Sjg3ZyhhxiDJHliojbZtaNr2hnevXqr0tqMCgc1T4b39W3vB+/he5JRXeSPJRU/NMTTL1minX30iyrKy8400kw0WPC0ktLaef0nZ8qBUvPqH777lHDzzxitZUZ2v0Eefrujtv0xUOh5Z78pU+YrLS06rVuv4ZNb52q2pfuVdN5Sa0MsYq5+g7NOw79zobWqnC/n+wF9hGH5g6NdDj+oRx7637g2prrFLF5kpt3dGkzIFDNGzYUA3KTY1jg869db/Vsk1t1RVqq9uq9vYspeUXK3PwMAVS4GqMVOhxWeHBz1x/UkePC44KKL3fII0smaiDD52uSSUjUya0nJU5WOlFk5VVfKxyDpytrCHDUyK0UokNrFQ+EkFwAQCcQnABAJwSEVy8zh0AkPzocQEAnEJwAQCcQnABAJxCcAEAnEJwAQCcQnABAJxCcAEAnEJwAQCcQnABAJxCcAEAnOIFV+dgTwz7BABIVt4bcNHjAgC4heACADiF4AIAOIXgAgA4heACADiF4AIAOIXgAgA4heACADiF4AIAOKUzuHYZNMMsYCANAECf6hZEZpYeFwDAKQQXAMApBBcAwCkEFwDAKQQXAMApBBcAwCkEFwDAKQQXAMApBBcAwCkdweW9NrnjU7dXKgMAkGgdUeQ3/Ak9LgCAUwguAIBTCC4AgFMCkyZPCRqyZT7J+/Dni8cW68knn/A3BRB/5f4UySBwfbHfQjKY+8JJKisvUyAQMJWmgFlm2/S4AABOIbgAAE4huAAATiG4AABOIbgAAE7pElzei5JDFxd2vEIZAIA+FQ4n/zM9LgCAUwguAIBTCC4AgFMILgCAUwguAIBTCC4AgFMILgCAUwguAIBTCC4AgFN2CS4GzAAAJA0/lLy3jAw16XEBANxCcAEAnEJwAQCcQnABAJxCcAEAnEJwAQCcQnABAJxCcAEAnEJwAQCc0mNwMYIGACAZdM8jelwAAKcQXAAApxBcAACnEFwAAKcQXAAApxBcAACnEFwAAKcQXAAApxBcAACnEFwAAKekKWgH0+hpgCcGfgIA9JVg1BSixwUAcArBBQBwCsEFAHAKwQVgvwRb6rVt48da88FGbd5Wr53t/gokVrOpKlM7TLXYBamL4AKwT5rKntENF56pMYUHa8ioYzThoCM1omiaCoafrssfs3tQ9Dp75cLbpm4xdaOp/zH1K7/9Z1NbTaUgggvAXmrVx/f/SEce8hX9YOGb2pI9RrNOPlXnf/YEHTdjjPJqt2rbTq5I7nW2Z3ufqb+Z2mZqiKnJpg4wlW5qrak7TX1kKsUQXAD2StVzv9R58xfojYYhmnvdn7Ru07N65fFbtfDeu/Xs8iXaXLFIVx/a398avcY+N7Ad2xJT3zB1qanPmfqyqX83NdZUk6nHTO00lUIILgCxq1+hX15xt16rLdRJP/+9Hrj2GI3K8tf5MgrGqnRMtj+HXjXd1EWmiry5TgWmPmPK/hoqTG02lUIILgAxatfHf/+NblveqIJjLtZNX58s+lV9yB4OnOlPoxloKs9Um6lauyB1pO3uSDRHqQF0aN+gJxYtU6UG64SvnaFpOf5yJCfbLckwFfCnKYQeF4CYBDct08PLdkiDDtYZxw7z9odIYvby+AZTtkdmDx2mEIILQEzq1r6lVVVB5RwwVVOHtGvbykd0w1e+rGNnnqJp08/UiRfcqNuf2ahGDtUkh3dN2UOEQ00NtgtSB8EFIAbt2r7mA21plbL6p+m9Wy7W9JmX6gd3P60XXl+td95cqacX3aZLTjhBh87/u1bbq9nQd+wFGc+Zst1iex6s2wU0riO4AMSgXQ076r2rqrN2vqKbrn9RmSd/Rw+/+bK2Vr+lirX3a8G3Z2hwepPe/9OPdNFPX0+16wHcUWnqXlN1pmaZOsRUiiG4AMTABFdto0yHS1uXLlPNmTfr+Qcv07xpIzQor7+GjDtUF/1ygR66aqpyVa9ld96hf2zgmGHCvW/qLlPbTc02dbKpFDwZSXABiEFAGZnpoX1gwSx959pPa/Qul2H315x//7rmjQgouHmFHl3OsE8JYy95f8bUPabsiBqnmzrFVE+XyjuO4AIQg4D6FfRTpmlljJysQ0ZGv746UDhGE4eZrYK12rC+xtufopfZ84kLTS0xZV+I/BVTM0ylMIILQAwyNHTSOA0xz+CDLc1q7imRMvM0uMDGm8GRwt5nTzrasQrtuISTTH3V1DBTKY7gAhCTgvGHqHSg1La1TGu29pBc9Zu1ZqPpAgTyNXJ0QaoeqUoeT5uyoTXN1HmmUuzqwZ6Egst7ZhR+emSnPFUC0FXaAUfp3CMKpeqluvXWZar2l3cKqvK5B/VYWZsCQ6fr1MPNtug99gKMN03ZFxfPNZWCzxK6JlHnHD0uALFJG6Vzv3uupuU0663bfqDLF3zoDcwQElT9qgf1vase1AetOZr+pa/q9FGMrdGr1puyv4BBpvJNhfsc0SrFBEonTQ4qaP7ZD/MNBoPtpkLt4uKxWvzkk/6mAOKv3J+6okYvXjtfp/3kdVUH+mnE1MN0/FHFSlv7hp59+V1tqEvT0LlX6tEHLtYMB0fgDVxf7Lcc8Lypp0zZntaexiK0hxDnm3JsBI0TX5irsrJyBQIBU+b3E0jz2vS4AOyFAh113R/17O8+r8MHt2nzmy9o4a1/1l+efEebdYBOveY2vfyQm6HlHHthhg0t27G1pxz3VCmEHhfQp1zrcUVoq9fGtWUqr6hX2qBRmjBhpAqz3D486FSPyx4CtBUr+6tx7NdDjwtAfKX318iJUzTn2Fk6Yuoo50PLOfbHbffgsVYK/XrstwMAgDMILgCAUwguAIBTCC4AgFO84Oq8MMVveZO9uVwFAIDeEs4jOw3S4wIAuIXgAgA4heACADiF4AIAOIXgAgA4heACADiF4AIAOIXgAgA4heACADilM7hCL0jufIEyAADJIiKj6HEBAJxCcAEAnEJwAQCcQnABAJxCcAEAnEJwAQCcQnABAJxCcAEAnEJwAQCc0hFcES9KDuloAADQV0wY+XkUzih6XAAApxBcAACnEFwAAKcQXAAApxBcAACnEFwAAKcQXAAApxBcAACnEFwAAKdEDa7wq5MBAOhTEaNmhNHjAgA4heACADglUDppctBQtCopKdbiJ5/0NwUQd0uW+Q0kg4aZhX4LyeCMMy9R2boyBQIBk1YBb2qLHhcAwCkEFwDAKQQXAMApBBcAwCkEFwDAKQQXAMApBBcAwCm7Dy7GfQIA9BWTQdFiiB4XAMApBBcAwCkEFwDAKQQXAMApBBcAwCkEFwDAKQQXAMApBBcAwCkEFwDAKSa4GB4DAJC8uqcUPS4AgFMILgCAUwguAIBTCC4AgFMILgCAUwguAIBTCC4AgFMILgCAUwguAIBT0kIvSY58XTIjaQAAkk1nNtHjAgA4heACADiF4AIAOIXgAgA4heACADiF4AIAOIXgAgA4heACADiF4AIAOCWtc+AM+8lUZBsAgCRDjwsA4BSCCwDgFIILABwXbG9VQ/VWfbyuXGUbd6ixzV+RogITSycFFTT/7Iedtne2S4pLtHjxk/6mAOJuyTK/keSClfrLDRfritdqFNM+Mb1In/3ubbr1yIH+Ajc0zCz0Wy5oV/Wqp3XXr+7Q7+5fqQ31rTK7byOgzIIDderl1+jGy47V2H7exk4644xLtK6sTIFAwJT5zgJpXpseF4CYpLU3q7quVjt2WzXaVlOtbXUB5edn+V+J3lGt52+6Ttf+eYWq+o3S9OPm6qzTjtasCYOUXvuBHrr+qzr63Lv0ZoO/eQqhxwX0JVd6XEZbS7Oa23q+2jjYWqWX7/mBzl3wtgaceINeuWauRjr21NitHleVnvmvW7R8+nxdevIY5ZoeSUiLNj71K1144e1aWperWdct1KPfnaIcf61L6HEB2C/pmdnKzcnpsfrVr9Ctj7ytmv6H6NsXHetcaLmnUJ+68of6j09HhpaVqZEnfl3/OX+caTXo3Sdf00et/qoUwZ8WgDio1wv3/UmPbAvooBPm619LOEzYt/pr7NQxyjOt1roa1RFcANBV64YndONjH6gp/3B9+3MzNdhfjr7SpvqqOrWYVv9RB2hYdmhpqogeXAycASBmdXrxgUV6ujpN4469QJ8fk+EvR59pWqdnFn+g+kCR5pw1U8O7HEp0lJdJoXCixwVgv7RveUG/fqpMzf0m6yvnzFSRvxx9IajGjct1x2Xf1LVP1Wn06Zfp2rNHK91fmyoILgD7oUmvP7pQj20PasSsz+tfOLeVYC1a/cdrdM5Z83XKp+Zp+sRZGjvpQl39TK7mXX+7Hv/jFzQ51980hRBcAPZd7Qrd/cRq1aeN0hnz5mg0e5SEa96ySs8vfkHPv7ZKa9dXqT6YpcIRg1UQrFV1fWoOocGfGYB9FNTGZQ/qwY2tyimZqy9OLfCXI3EyVfr1O/TOhy9p9TuP6+WnF2jRzRdoat0y/f66b+m4mV/ST5/fETo9lEIILgD7pm2DHn7kNW0M5uqwuSfrMIeHFnJZZt4gDR06VKOKx+ngI+bo9K9drfuWPaZ7LpmojE0v6abLbtYTW1MrugguAPukZf1z+us7NVL/Kfr80Qcqxa64dlv6UJ3yo+/rggPT1bxmsf783FZ/RWoguADsg1Z9sPQ5rWiQ8scdqRNHpNp1aymgYJxml+abRrXWvr1JjaGlKYHgArD32jbqyRffV436aers2TqIl24ln7ZGba+xL0FOU1ZutlLpV0RwAdhrbRVL9fCaOim7WKccfoC4CD757Fz3mp5dbfpZmaM0Z/ZoZfrLU4EXXBEvSAaAPdqyaqneqpcyhkzVUaOIrcQLasO9N+hbty/VpqbuO+6g6j9crGu/+nM9uqVdhUd9QfNn9ffXuSginPwmPS4Ae6leq95eI3uh2oAxkzUhBV/g6oJAa7nuu+IClRYfr2POvkLfvOpnuuqyy3Xu3JNVOuMS/e+yOuWWnq/f3P4FlabYcwuCC8Dead+hsq07lZWZrwMPGqPCVBgHzzkBFcw4W187c5IG7tyk1594SHfdcpduufthPfZyueoLJuj0K3+tF5f8RGeOTr0LZwL2jSTtm0Z6bybZrUpKeCNJoFc59EaSkYLtbWptDyqQlq6MtNRJLrfeSDKktWGHtlZuU8XGStUE8lQ0YpSKRxeqXwrkVeiNJNd5bx7pfXhvKMkbSQLYBzawMjMyUiq0XJWRO1DDx47T9DmzdczsqZo0NjVCa3cILgCAUwguAIBTCC4AgFMILgCAUwguAIBTCC4AgFM6gssfScMTngIA0KciwimcTfS4AABOIbgAAE4huAAATiG4AABOIbgAAE4huAAATiG4AABOIbgAAE4huAAATtkluCJHzwh2zAEAkFjhDIpMItumxwUAcArBBQBwCsEFAHAKwQUAcArBBQBwCsEFAHAKwQUAcArBBQBwCsEFAHAKwQUASHqRo2cQXAAApxBcAACnEFwAAKcQXAAApxBcAACnEFwAAKcQXAAApxBcAACnEFwAAKcQXACApBU5YkZYYGLppKChaFVSUqynFi/2NwUQdwF/iqRwx/LD/BaSwaIrC7VuXZkCgUCXoscFAHAKwQUAcArBBQBwCsEFAHAKwQUAcArBBQBwCsEFAHAKwQUAcIoJrsjXJUd7jTIAAMmDHhcAwCkEFwDAKQQXAMApBBcAwCkEFwDAKQQXAMApBBcAwCkEFwDAKQQXAMApaaHBMqKNnsEoGgCA5EOPCwDgFIILAOAUggsA4BSCCwDgFIILAOAUggsA4BSCCwDgFIILAOAUggsA4BSCCwDglIjgCg/xFPCnAAD0tV2HJKTHBQBwCsEFAHAKwQUAcArBBQBwCsEFAHAKwQUAcArBBQBwCsEFAHAKwQUAcEqa9zrkyBcmezNdFgAA0IciMylIjwvAvmpSlT7UalMbTLvdXwr0NoILwF7aopf0r5qhARqscZpoarQKNVJf0R3arjZ/K/Sdmmc/0k9OflOXf3q1Hn4n9Z5SEFwA9sJq3alDdZz+pDeUq2KdrHP0ac1Ulrbqbv2bDtEFWqdWf2v0gaYGLbl7uz7e1qr6HW1qScEzPwQXgBg1aqUu1lXaaHpVn9INWmNi7HH9XY/pNdN+WsdooD4289/Q79Tsfw0SK6htizdrybupfeCW4AIQozf1f3pF25Wvo/W/ukJFyvDXSEN1rG7R95Sndj2nBVpFdPWB4I5aPf6HGjWMydO4Yan7FlUEF4AYbdZH2mmmQzVVY5QTWhihWDM1XOmmZ7bZfDT6S5EorXrvjvV6sTxdU04fqCFZ/uIURHABiNFwE1eZZlqnyqix1KCtZl27sjVEw9TPX4rEqH91k+65r0nZs4fr3LNylJ3Cr2oiuADEaJrO0sHK1RY9o3v1tr80rFEL9TtVKKgZOlelJr6QKMHqWv3zF9u0OTtPJ39jsIZnB1L6vewJLgAxytVM/VrXqFDbdaXm6cd6SB+b3le53tD1Jqy+r6dUpLn6X30jyoFE9JL2nXr9Fx/p2Q8CmvDVMTqxNPV3653fYdcXJgNAFEeYeHpev9d4bdO1OlMHaKiKTR/rOj2qibrYrHvQzOX5W6O3BbX5/o+18JFm5cwaofM/1887mJuaOoOJHheAvfCB/m7i6Xt6W3XKNn2vSSamJmmksszO5E0TaBfrRyrzLuFA72t6p0ILfl2tuiED9dmrh2hUCl+QEYngAhCjTXrY9LG+qBdMaP2LfqsNqtS7Wm5qg1n3qi7UgXpON+ssXaUtDAHVy9ordujeH27WmuYcHf39MZo9OpXPanVFcAGISY1+oWv0jhp1tJnepq9rsNL9ddIgHa479BcdqQKt1O90i5b6a9ALGhr0+A8/0osfBTT+a2N13jGZKX0xRncEF4AYVOkl/c3ElkxcfcX0rXJDi7vI1aH6mo41rQbdY0KsJrQY8RVs0cpfrNPDy1vVr3SgphQ0atkDW/VCRD3/SK0q7SvAg22qfHW7WbZNr7zarJbQLTiP4AIQg0qt1na1K1MjNFFF/tLuAmbdNO9CeLv9Ng4X9oa2Vm1a2+KNB9nw3jY98LOP9KefdK0FN27WO5VBs+1OLf+tXVauBx5tSplzjwQXgBhkKsfbXbRoi8pUHVoYxQd61xvsKd3E1yfr8FXCBNI14rgizf3C0J7rc4UaO9Bsm56pg04LLZs1PSPi0K7bAhMmlgYVtP9M2Q87bQ+1S0pK9NTixf6mAOLOmT17o5brWB2jZSaWztMftUgX7bIbbNWHOldH6iFVaLZ+qmf1fcdehnzH8sP8luPqa/WXC9dqyeYcnXLnRJ0zzc0+yqIrC7Vu3ToFAoEuRY8LQAz6abq+puNN0rbrfhNIN5tYijzw1KyPdJ2+rH+a0ApomC7RhYydkRxSsNtLcAGISYa+pFs1XxPVpvW6SidqjGmH3o9rlkaZ9g1aYtb1MwF3m+mPjfW/Dog3L7g6Xo9sG4yaASCqTBNGd+oV/UHfUolyvQswnjT9rye0VNvVqnE6SQvM+tt0VsqcTXGU2Y9n909TZm6aslKhxxWZS6btneOy57U6znOFy3xwjgvoZc7uVIJq0Sat0wZtM3N5pvdVouHOD/WUMue4jGBb0LuqMy3NnhcKLXNNxzku++F9H16LQ4UA9kXA9L9GaoJmao6paSkQWqkmkB5QuilXQ2t3CC4AgFMILgCAUwguAIBTCC4AgFMILgCAUwguAIBTCC4AgFN6Di5G0AAA9LVwFtmp36bHBQBwCsEFAHAKwQUAcArBBQBwCsEFAHAKwQUAcArBBQBwCsEFAHAKwQUAcMrug4vRMwAAfSn8Ds4R7+RMjwsA4BSCCwDgFIILAOAUggsA4BSCCwDgFIILAOAUggsA4BSCCwDgFIILAOAUggsA4JSO4GJ0JwBA0gmHU0RI0eMCADiF4AIAOIXgAgA4heACADiF4AIAOIXgAgA4heACADiF4AIAOCUwYWJp0JAt88mbhqukpERPPbXY3xQAgMQ5ce5crftwnQKBQJfq6HEF/GkXURcCAJAg4Rzyp3YADQ4VAgCcQnABAJxCcAEAnEJwAQCcQnABAJxCcAEAnEJwAQCcQnABAJxCcAEAnEJwAQCSnx0yw7ADaBBcAACnEFwAAKcQXAAApxBcAACn7Bpc3YaQBwCgz0Vkkhdcu2QUoQUASAomkLxM8oPJTLzg8q4y7AircCOgtrY2VVZW+vMAACSGzZ621jZ/rjO0rIgel/kcziy/0dzcrDVr1nhtAAASxWaPzaBdhd+6v1tghe3cudN88Vp/DgCAxFizdq2ad3YPrlBG+RdndAaWbYWrrq5Of134V23YsMGuAgCg1603mbPwrwtVX1/fJZPC/OAK6VgRMC1TLS2t2lKxRb/97W/9FQAA9K5bTeZUVFR4GRTOIyucUelFRUXX+e2QjvQKNZuam7S1cqs+/PBDTSwtVUFBQWglAABxtH79Bv385z/XM888q+3bt4fiyIRWwCvbtEtM24RRMOhdVhiUbXhtb2rKW2bXyQRWvoYNHaYLL7xA48eP92rIkCGhlQAA7AN79aC9EMPWXxcu9HpaNTW13jovsPypTa6OAJtYOslkVCidQsFl2l5oheZD7VCAZWZkKC8vT1lZWcrOzlZaun+kMfTley10LwmU0LtL8PcWR+4+8gRL5A/K/u/9hHP7R5DARx/Hu4rtpvbxDv0vsy+7am5q9i4GtOe0WlpbQ+FkN4gMq8j57sG1a2hFts1HaEHo/2zEdF/E9lUxbBXj3cft/mIRp5uJJ/+3BTjJ23G5Km4Pfc83FPNdxbRhHO+vO/OFnWEUWhDuYYWW7brcTr11Nri6B9FuA6xj6n2ZN/VWduPf4v6L4WZiv6e43lhcxHZ3CX5QsUjChwSHeTuo5BLaVSaZmB5SbI87jje1R1F/lt4iG0rhaWib3QZWaIUCpbbHZRpdQslU9GV26v3z5yOmu4i+tIv4bGLEtlWsm8VD7HeVwAcVq6T8ObkqXt9h6D9soiT23mLk8INK6EOP+c72vGFMN7WPG3lL/GCKOu3S9hreMq9VOskeKjStjgAyU9PoElrhqbdNeN773DHdRZRF3cWwiRG3G4pJ3B5TrOJ4U8km8d9aCv8w4yr0nz8e4ndLjorrD2DPN5bguzPi9JiibhQZSN2noS+InHa2TXUEl/lP3xFC3j9/3nzyFvc07zXDjU67Lokmtq32JMrd74c43VhcH9OeJfLn7Unw94cUF9onxcmebyyudxeLuN1hHL+3vn5MEUFktwhNoodYeF1oYuZtcNmdkLcf2iWU/Gn35aGVds5+8td1F31pF/HZJM5S+HHHKoEPPvE/p2QUy08h9J82HuJ3SwkW8wNPvu8wbo/I33knSkz3to+Pyfsq88mPJe92QjfVGVQd892Xl06abP7XdAsqr+mHVfdptG38z5E6tkmIGO8sTo8ptpuJ4w8goT/LhN9dHLn7yOPH+6+dkuL6nSX8x7TnO4zbQ4r5huJzj6FQ2RedQdQ5iQinbtPQxE6l/wf/S4smBdC2rQAAAABJRU5ErkJggg==;" vertex="1" parent="1">
          <mxGeometry x="1408" y="220" width="430" height="470" as="geometry" />
        </mxCell>
      </root>
    </mxGraphModel>
  </diagram>
</mxfile>
